<mxfile host="app.diagrams.net" modified="2024-04-04T08:29:26.021Z" agent="Mozilla/5.0 (Windows NT 10.0; Win64; x64) AppleWebKit/537.36 (KHTML, like Gecko) Chrome/123.0.0.0 Safari/537.36" etag="J57CgQFPLb38nDjF-k3Y" version="24.2.1" type="device">
  <diagram name="Page-1" id="B3qLKUIBDZytd06URCkj">
    <mxGraphModel dx="1299" dy="666" grid="1" gridSize="12" guides="1" tooltips="1" connect="1" arrows="1" fold="1" page="1" pageScale="1" pageWidth="850" pageHeight="1100" math="0" shadow="0">
      <root>
        <mxCell id="0" />
        <mxCell id="1" parent="0" />
        <mxCell id="2UhgW843h8V3SbQnolP0-1" value="&lt;p style=&quot;line-height: 120%; font-size: 16px;&quot;&gt;Start&lt;/p&gt;" style="ellipse;whiteSpace=wrap;html=1;" vertex="1" parent="1">
          <mxGeometry x="310" y="140" width="210" height="100" as="geometry" />
        </mxCell>
        <mxCell id="2UhgW843h8V3SbQnolP0-15" style="edgeStyle=orthogonalEdgeStyle;rounded=0;orthogonalLoop=1;jettySize=auto;html=1;exitX=1;exitY=0.5;exitDx=0;exitDy=0;entryX=0.5;entryY=0;entryDx=0;entryDy=0;" edge="1" parent="1" source="2UhgW843h8V3SbQnolP0-2" target="2UhgW843h8V3SbQnolP0-14">
          <mxGeometry relative="1" as="geometry" />
        </mxCell>
        <mxCell id="2UhgW843h8V3SbQnolP0-17" value="yes" style="edgeLabel;html=1;align=center;verticalAlign=middle;resizable=0;points=[];" vertex="1" connectable="0" parent="2UhgW843h8V3SbQnolP0-15">
          <mxGeometry x="-0.3585" relative="1" as="geometry">
            <mxPoint as="offset" />
          </mxGeometry>
        </mxCell>
        <mxCell id="2UhgW843h8V3SbQnolP0-26" style="edgeStyle=orthogonalEdgeStyle;rounded=0;orthogonalLoop=1;jettySize=auto;html=1;" edge="1" parent="1" source="2UhgW843h8V3SbQnolP0-2">
          <mxGeometry relative="1" as="geometry">
            <mxPoint x="204" y="984" as="targetPoint" />
          </mxGeometry>
        </mxCell>
        <mxCell id="2UhgW843h8V3SbQnolP0-37" value="no" style="edgeLabel;html=1;align=center;verticalAlign=middle;resizable=0;points=[];" vertex="1" connectable="0" parent="2UhgW843h8V3SbQnolP0-26">
          <mxGeometry x="-0.6677" relative="1" as="geometry">
            <mxPoint as="offset" />
          </mxGeometry>
        </mxCell>
        <mxCell id="2UhgW843h8V3SbQnolP0-2" value="&lt;span style=&quot;font-size: 15px;&quot;&gt;i*i&amp;lt;=eded&lt;/span&gt;" style="rhombus;whiteSpace=wrap;html=1;" vertex="1" parent="1">
          <mxGeometry x="264" y="804" width="155" height="159" as="geometry" />
        </mxCell>
        <mxCell id="2UhgW843h8V3SbQnolP0-7" value="" style="edgeStyle=orthogonalEdgeStyle;rounded=0;orthogonalLoop=1;jettySize=auto;html=1;" edge="1" parent="1" source="2UhgW843h8V3SbQnolP0-3" target="2UhgW843h8V3SbQnolP0-6">
          <mxGeometry relative="1" as="geometry" />
        </mxCell>
        <mxCell id="2UhgW843h8V3SbQnolP0-3" value="&lt;font style=&quot;font-size: 18px;&quot;&gt;eded&lt;/font&gt;" style="shape=parallelogram;perimeter=parallelogramPerimeter;whiteSpace=wrap;html=1;fixedSize=1;" vertex="1" parent="1">
          <mxGeometry x="307" y="331" width="210" height="75" as="geometry" />
        </mxCell>
        <mxCell id="2UhgW843h8V3SbQnolP0-4" style="edgeStyle=orthogonalEdgeStyle;rounded=0;orthogonalLoop=1;jettySize=auto;html=1;entryX=0.545;entryY=0.015;entryDx=0;entryDy=0;entryPerimeter=0;" edge="1" parent="1">
          <mxGeometry relative="1" as="geometry">
            <mxPoint x="415" y="240" as="sourcePoint" />
            <mxPoint x="415.4499999999998" y="332.125" as="targetPoint" />
          </mxGeometry>
        </mxCell>
        <mxCell id="2UhgW843h8V3SbQnolP0-11" value="" style="edgeStyle=orthogonalEdgeStyle;rounded=0;orthogonalLoop=1;jettySize=auto;html=1;" edge="1" parent="1" source="2UhgW843h8V3SbQnolP0-6" target="2UhgW843h8V3SbQnolP0-9">
          <mxGeometry relative="1" as="geometry">
            <Array as="points">
              <mxPoint x="412" y="600" />
              <mxPoint x="412" y="600" />
            </Array>
          </mxGeometry>
        </mxCell>
        <mxCell id="2UhgW843h8V3SbQnolP0-6" value="&lt;span style=&quot;font-size: 15px;&quot;&gt;let kok=1&lt;/span&gt;" style="rounded=0;whiteSpace=wrap;html=1;" vertex="1" parent="1">
          <mxGeometry x="352" y="480" width="120" height="60" as="geometry" />
        </mxCell>
        <mxCell id="2UhgW843h8V3SbQnolP0-12" style="edgeStyle=orthogonalEdgeStyle;rounded=0;orthogonalLoop=1;jettySize=auto;html=1;entryX=1;entryY=0;entryDx=0;entryDy=0;" edge="1" parent="1" source="2UhgW843h8V3SbQnolP0-9" target="2UhgW843h8V3SbQnolP0-2">
          <mxGeometry relative="1" as="geometry">
            <Array as="points">
              <mxPoint x="415" y="756" />
              <mxPoint x="380" y="756" />
            </Array>
          </mxGeometry>
        </mxCell>
        <mxCell id="2UhgW843h8V3SbQnolP0-9" value="&lt;font style=&quot;font-size: 15px;&quot;&gt;let i=1&lt;/font&gt;" style="rounded=0;whiteSpace=wrap;html=1;" vertex="1" parent="1">
          <mxGeometry x="352.5" y="615" width="125" height="63" as="geometry" />
        </mxCell>
        <mxCell id="2UhgW843h8V3SbQnolP0-19" value="" style="edgeStyle=orthogonalEdgeStyle;rounded=0;orthogonalLoop=1;jettySize=auto;html=1;" edge="1" parent="1" source="2UhgW843h8V3SbQnolP0-14" target="2UhgW843h8V3SbQnolP0-18">
          <mxGeometry relative="1" as="geometry" />
        </mxCell>
        <mxCell id="2UhgW843h8V3SbQnolP0-14" value="&lt;span style=&quot;font-size: 15px;&quot;&gt;kok=i&lt;/span&gt;" style="rounded=0;whiteSpace=wrap;html=1;" vertex="1" parent="1">
          <mxGeometry x="478" y="936" width="120" height="60" as="geometry" />
        </mxCell>
        <mxCell id="2UhgW843h8V3SbQnolP0-21" style="edgeStyle=orthogonalEdgeStyle;rounded=0;orthogonalLoop=1;jettySize=auto;html=1;exitX=0.5;exitY=0;exitDx=0;exitDy=0;" edge="1" parent="1" source="2UhgW843h8V3SbQnolP0-18">
          <mxGeometry relative="1" as="geometry">
            <mxPoint x="408" y="756" as="targetPoint" />
            <Array as="points">
              <mxPoint x="738" y="780" />
              <mxPoint x="420" y="780" />
            </Array>
          </mxGeometry>
        </mxCell>
        <mxCell id="2UhgW843h8V3SbQnolP0-18" value="&lt;span style=&quot;font-size: 15px;&quot;&gt;i++&lt;/span&gt;" style="rounded=0;whiteSpace=wrap;html=1;" vertex="1" parent="1">
          <mxGeometry x="678" y="936" width="120" height="60" as="geometry" />
        </mxCell>
        <mxCell id="2UhgW843h8V3SbQnolP0-38" value="&lt;font style=&quot;font-size: 15px;&quot;&gt;End&lt;/font&gt;" style="ellipse;whiteSpace=wrap;html=1;" vertex="1" parent="1">
          <mxGeometry x="300" y="1200" width="144" height="80" as="geometry" />
        </mxCell>
        <mxCell id="2UhgW843h8V3SbQnolP0-48" style="edgeStyle=orthogonalEdgeStyle;rounded=0;orthogonalLoop=1;jettySize=auto;html=1;" edge="1" parent="1" source="2UhgW843h8V3SbQnolP0-45" target="2UhgW843h8V3SbQnolP0-38">
          <mxGeometry relative="1" as="geometry" />
        </mxCell>
        <mxCell id="2UhgW843h8V3SbQnolP0-45" value="&quot;Ən aşağı kök:&quot; +kok" style="shape=document;whiteSpace=wrap;html=1;boundedLbl=1;" vertex="1" parent="1">
          <mxGeometry x="127" y="984" width="156" height="108" as="geometry" />
        </mxCell>
      </root>
    </mxGraphModel>
  </diagram>
</mxfile>
